<svg xmlns="http://www.w3.org/2000/svg" viewBox="0 0 700 310" font-family="monospace" font-size="12">
  <!-- Title -->
  <text x="350" y="22" text-anchor="middle" font-size="15" font-weight="bold" fill="#333">Screen-Space Column Coverage</text>

  <!-- X axis -->
  <line x1="50" y1="250" x2="650" y2="250" stroke="#333" stroke-width="1.5"/>

  <!-- Tick marks and labels every 5 columns from 140 to 210 -->
  <!-- Scale: column x maps to SVG_x = (x - 135) * 8 + 50 -->
  <!-- 140->90, 145->130, 150->170, 155->210, 160->250, 165->290, 170->330, 175->370, 180->410, 185->450, 190->490, 195->530, 200->570, 205->610, 210->650 -->

  <line x1="90" y1="248" x2="90" y2="255" stroke="#333" stroke-width="1"/>
  <text x="90" y="267" text-anchor="middle" font-size="10" fill="#555">140</text>

  <line x1="130" y1="248" x2="130" y2="255" stroke="#333" stroke-width="1"/>
  <text x="130" y="267" text-anchor="middle" font-size="10" fill="#555">145</text>

  <line x1="170" y1="248" x2="170" y2="255" stroke="#333" stroke-width="1"/>
  <text x="170" y="267" text-anchor="middle" font-size="10" fill="#555">150</text>

  <line x1="210" y1="248" x2="210" y2="255" stroke="#333" stroke-width="1"/>
  <text x="210" y="267" text-anchor="middle" font-size="10" fill="#555">155</text>

  <line x1="250" y1="248" x2="250" y2="255" stroke="#333" stroke-width="1"/>
  <text x="250" y="267" text-anchor="middle" font-size="10" fill="#555">160</text>

  <line x1="290" y1="248" x2="290" y2="255" stroke="#333" stroke-width="1"/>
  <text x="290" y="267" text-anchor="middle" font-size="10" fill="#555">165</text>

  <line x1="330" y1="248" x2="330" y2="255" stroke="#333" stroke-width="1"/>
  <text x="330" y="267" text-anchor="middle" font-size="10" fill="#555">170</text>

  <line x1="370" y1="248" x2="370" y2="255" stroke="#333" stroke-width="1"/>
  <text x="370" y="267" text-anchor="middle" font-size="10" fill="#555">175</text>

  <line x1="410" y1="248" x2="410" y2="255" stroke="#333" stroke-width="1"/>
  <text x="410" y="267" text-anchor="middle" font-size="10" fill="#555">180</text>

  <line x1="450" y1="248" x2="450" y2="255" stroke="#333" stroke-width="1"/>
  <text x="450" y="267" text-anchor="middle" font-size="10" fill="#555">185</text>

  <line x1="490" y1="248" x2="490" y2="255" stroke="#333" stroke-width="1"/>
  <text x="490" y="267" text-anchor="middle" font-size="10" fill="#555">190</text>

  <line x1="530" y1="248" x2="530" y2="255" stroke="#333" stroke-width="1"/>
  <text x="530" y="267" text-anchor="middle" font-size="10" fill="#555">195</text>

  <line x1="570" y1="248" x2="570" y2="255" stroke="#333" stroke-width="1"/>
  <text x="570" y="267" text-anchor="middle" font-size="10" fill="#555">200</text>

  <line x1="610" y1="248" x2="610" y2="255" stroke="#333" stroke-width="1"/>
  <text x="610" y="267" text-anchor="middle" font-size="10" fill="#555">205</text>

  <text x="350" y="290" text-anchor="middle" font-size="11" fill="#333">Screen Column (x)</text>

  <!-- Step 1: s382 mark_solid [149,170] — green bar -->
  <!-- 149 -> (149-135)*8+50 = 162,  170 -> 330 -->
  <rect x="162" y="60" width="168" height="24" rx="3" fill="#44bb44" opacity="0.8"/>
  <text x="246" y="77" text-anchor="middle" font-size="11" fill="white" font-weight="bold">s382 mark_solid [149,170]</text>
  <text x="70" y="77" font-size="10" fill="#44bb44" font-weight="bold">Step 1</text>

  <!-- Step 2: s510 mark_solid [114,172] — red bar (show from 140 area) -->
  <!-- 114 -> (114-135)*8+50 = -118, clip to 50.  172 -> (172-135)*8+50 = 346 -->
  <rect x="50" y="100" width="296" height="24" rx="3" fill="#dd4444" opacity="0.8"/>
  <text x="198" y="117" text-anchor="middle" font-size="11" fill="white" font-weight="bold">s510 mark_solid [114,172]</text>
  <text x="55" y="117" font-size="9" fill="white">...</text>
  <text x="70" y="117" font-size="10" fill="#dd4444" font-weight="bold">Step 2</text>

  <!-- Step 3: s522 mark_solid [164,173] — orange bar -->
  <!-- 164 -> (164-135)*8+50 = 282,  173 -> (173-135)*8+50 = 354 -->
  <rect x="282" y="140" width="72" height="24" rx="3" fill="#dd8822" opacity="0.8"/>
  <text x="318" y="157" text-anchor="middle" font-size="10" fill="white" font-weight="bold">[164,173]</text>
  <text x="70" y="157" font-size="10" fill="#dd8822" font-weight="bold">Step 3</text>
  <text x="120" y="157" font-size="10" fill="#dd8822">s522</text>

  <!-- Step 4: s609 intended [170,207+] — blue bar, but clipped to [174,...] -->
  <!-- Intended start: 170 -> 330, Actual start: 174 -> (174-135)*8+50 = 362,  207 -> (207-135)*8+50 = 626 -->
  <!-- Show intended range as dashed -->
  <rect x="330" y="180" width="296" height="24" rx="3" fill="none" stroke="#3366dd" stroke-width="1.5" stroke-dasharray="4,3"/>
  <text x="478" y="197" text-anchor="middle" font-size="11" fill="#3366dd">s609 intended [170, ...]</text>
  <!-- Show actual range as solid -->
  <rect x="362" y="180" width="264" height="24" rx="3" fill="#4488ee" opacity="0.7"/>
  <text x="70" y="197" font-size="10" fill="#3366dd" font-weight="bold">Step 4</text>
  <text x="120" y="197" font-size="10" fill="#3366dd">s609 (clipped)</text>

  <!-- THE GAP highlight -->
  <rect x="330" y="50" width="32" height="190" rx="0" fill="#ff0000" opacity="0.12"/>
  <line x1="330" y1="46" x2="330" y2="244" stroke="#ff0000" stroke-width="1" stroke-dasharray="3,2"/>
  <line x1="362" y1="46" x2="362" y2="244" stroke="#ff0000" stroke-width="1" stroke-dasharray="3,2"/>
  <text x="346" y="43" text-anchor="middle" font-size="12" fill="#ff0000" font-weight="bold">GAP</text>
  <text x="346" y="300" text-anchor="middle" font-size="10" fill="#ff0000">170-173</text>

  <!-- Annotation: what happened -->
  <text x="500" y="237" font-size="10" fill="#555">Columns 170-173 marked solid by steps 2-3</text>
  <text x="500" y="250" font-size="10" fill="#555">before s609 gets a chance to draw at step 4</text>
</svg>
